<?xml version="1.0" encoding="utf-8"?>
<!-- Generator: Adobe Illustrator 19.0.0, SVG Export Plug-In . SVG Version: 6.00 Build 0)  -->
<svg version="1.1" id="Layer_1" xmlns="http://www.w3.org/2000/svg" xmlns:xlink="http://www.w3.org/1999/xlink" x="0px" y="0px"
	 viewBox="0 0 50 50" style="enable-background:new 0 0 50 50;" xml:space="preserve">
<style type="text/css">
	.st0{fill:#A9B3B6;}
	.st1{fill:#E00000;}
	.st2{fill:none;stroke:#E00000;stroke-miterlimit:10;}
</style>
<g id="XMLID_797_">
	<g id="XMLID_968_">
		<path id="XMLID_984_" class="st0" d="M4.6,25.6c0-2.7,1.1-5.2,2.9-6.9c1.8-1.8,4.2-2.9,6.9-2.9c2.7,0,5.2,1.1,6.9,2.9
			c1.8,1.8,2.9,4.2,2.9,6.9c0,0.1,0,0.2,0,0.2h0.3c0-0.1,0-0.2,0-0.2c0-5.6-4.5-10.1-10.1-10.1c-1.9,0-3.7,0.5-5.3,1.5
			c1.7-1.1,3.6-1.7,5.8-1.7c2.9,0,5.5,1.2,7.4,3.1c1.9,1.9,3.1,4.5,3.1,7.4c0,0.1,0,0.2,0,0.2h0.3c0-0.1,0-0.2,0-0.2
			c0-5.9-4.8-10.7-10.7-10.7c-2.2,0-4.2,0.7-5.9,1.8c1.8-1.3,4-2.1,6.5-2.1c3.1,0,5.8,1.2,7.8,3.2c2,2,3.2,4.8,3.2,7.8
			c0,0.1,0,0.2,0,0.2h0.3c0-0.1,0-0.2,0-0.2c0-6.3-5.1-11.4-11.4-11.4c-2.5,0-4.7,0.8-6.6,2.1c2-1.5,4.5-2.5,7.2-2.5
			c3.2,0,6.2,1.3,8.3,3.4c2.1,2.1,3.4,5.1,3.4,8.3c0,0.1,0,0.2,0,0.2h0.3c0-0.1,0-0.2,0-0.2c0-6.7-5.4-12.1-12.1-12.1
			c-2.8,0-5.3,0.9-7.4,2.5c2.2-1.8,4.9-2.9,8-2.9c3.4,0,6.6,1.4,8.8,3.6c2.3,2.3,3.6,5.4,3.6,8.8c0,0.1,0,0.2,0,0.2h0.3
			c0-0.1,0-0.2,0-0.2c0-7.1-5.7-12.8-12.8-12.8c-3.1,0-5.9,1.1-8.1,2.9c2.3-2.1,5.4-3.3,8.7-3.3c3.7,0,7,1.5,9.3,3.9
			c2.4,2.4,3.9,5.7,3.9,9.3c0,0.1,0,0.2,0,0.2h0.3c0-0.1,0-0.2,0-0.2c0-7.5-6.1-13.5-13.5-13.5c-3.4,0-6.5,1.3-8.9,3.3
			c2.5-2.4,5.9-3.8,9.6-3.8c3.9,0,7.4,1.6,9.9,4.1c2.5,2.5,4.1,6,4.1,9.9c0,0.1,0,0.2,0,0.2h0.3c0-0.1,0-0.2,0-0.2
			c0-7.9-6.4-14.4-14.4-14.4c-3.8,0-7.2,1.5-9.8,3.8c2.7-2.7,6.4-4.4,10.5-4.4c4.1,0,7.8,1.7,10.5,4.4c2.7,2.7,4.4,6.4,4.4,10.5
			c0,0.1,0,0.2,0,0.2h0.3c0-0.1,0-0.2,0-0.2c0-8.4-6.8-15.2-15.2-15.2c-4.1,0-7.9,1.7-10.6,4.3c0.1-0.1,0.2-0.2,0.3-0.3
			c2.9-2.9,6.8-4.6,11.2-4.6c4.4,0,8.3,1.8,11.2,4.6c2.9,2.9,4.6,6.8,4.6,11.2c0,0.1,0,0.2,0,0.2h0.3c0-0.1,0-0.2,0-0.2
			c0-8.9-7.2-16.1-16.1-16.1c-4.5,0-8.6,1.9-11.6,4.9c0.2-0.2,0.4-0.4,0.6-0.6c3-3,7.2-4.9,11.9-4.9c4.6,0,8.8,1.9,11.9,4.9
			c3,3,4.9,7.2,4.9,11.9c0,0.1,0,0.2,0,0.2h0.3c0-0.1,0-0.2,0-0.2c0-9.4-7.7-17.1-17.1-17.1c-5,0-9.4,2.1-12.6,5.5
			c0.3-0.3,0.6-0.7,0.9-1c3.2-3.2,7.7-5.2,12.6-5.2c4.9,0,9.4,2,12.6,5.2c3.2,3.2,5.2,7.7,5.2,12.6c0,0.1,0,0.2,0,0.2h0.3
			c0-0.1,0-0.2,0-0.2c0-10-8.1-18.1-18.1-18.1c-5.4,0-10.3,2.4-13.6,6.2c0.4-0.5,0.8-1,1.3-1.4c3.4-3.4,8.1-5.5,13.3-5.5
			c5.2,0,9.9,2.1,13.3,5.5c3.4,3.4,5.5,8.1,5.5,13.3c0,0.1,0,0.2,0,0.2h0.3c0-0.1,0-0.2,0-0.2c0-10.6-8.6-19.2-19.2-19.2
			c-5.9,0-11.2,2.7-14.7,6.9c0.5-0.6,1-1.3,1.6-1.8C13,7.8,18,5.6,23.5,5.6c5.5,0,10.5,2.2,14.2,5.9c3.6,3.6,5.9,8.6,5.9,14.2
			c0,0.1,0,0.2,0,0.2h0.3c0-0.1,0-0.2,0-0.2c0-11.2-9.1-20.3-20.3-20.3c-6.4,0-12.2,3-15.9,7.7c0.6-0.8,1.3-1.6,2-2.3
			c3.8-3.8,9.2-6.2,15-6.2c5.9,0,11.2,2.4,15,6.2c3.8,3.8,6.2,9.2,6.2,15c0,0.1,0,0.2,0,0.2h0.3c0-0.1,0-0.2,0-0.2
			C46.2,13.7,36.6,4,24.7,4c-7,0-13.2,3.3-17.2,8.5c0.7-1,1.5-2,2.4-2.9C14,5.6,19.7,3,25.9,3c6.2,0,11.9,2.5,15.9,6.6
			c4.1,4.1,6.6,9.7,6.6,15.9c0,0.1,0,0.2,0,0.2h0.3c0-0.1,0-0.2,0-0.2C48.7,13,38.5,2.7,25.9,2.7C13.2,2.7,3,13,3,25.6
			c0,0.1,0,0.2,0,0.2h1.6C4.6,25.7,4.6,25.7,4.6,25.6z"/>
		<path id="XMLID_983_" class="st0" d="M25.9,48.6c6.2,0,11.9-2.5,15.9-6.6c4.1-4.1,6.6-9.7,6.6-15.9c0-0.1,0-0.2,0-0.2h0.3
			c0,0.1,0,0.2,0,0.2c0,12.6-10.2,22.9-22.9,22.9"/>
		<path id="XMLID_982_" class="st0" d="M24.7,47.3c5.9,0,11.2-2.4,15-6.2c3.8-3.8,6.2-9.2,6.2-15c0-0.1,0-0.2,0-0.2h0.3
			c0,0.1,0,0.2,0,0.2c0,11.9-9.7,21.6-21.6,21.6"/>
		<path id="XMLID_981_" class="st0" d="M23.5,46.1c5.5,0,10.5-2.2,14.2-5.9c3.6-3.6,5.9-8.6,5.9-14.2c0-0.1,0-0.2,0-0.2h0.3
			c0,0.1,0,0.2,0,0.2c0,11.2-9.1,20.3-20.3,20.3"/>
		<path id="XMLID_980_" class="st0" d="M22.5,44.9c5.2,0,9.9-2.1,13.3-5.5c3.4-3.4,5.5-8.1,5.5-13.3c0-0.1,0-0.2,0-0.2h0.3
			c0,0.1,0,0.2,0,0.2c0,10.6-8.6,19.2-19.2,19.2"/>
		<path id="XMLID_979_" class="st0" d="M21.5,43.9c4.9,0,9.4-2,12.6-5.2c3.2-3.2,5.2-7.7,5.2-12.6c0-0.1,0-0.2,0-0.2h0.3
			c0,0.1,0,0.2,0,0.2c0,10-8.1,18.1-18.1,18.1"/>
		<path id="XMLID_978_" class="st0" d="M20.6,42.8c4.6,0,8.8-1.9,11.9-4.9c3-3,4.9-7.2,4.9-11.9c0-0.1,0-0.2,0-0.2h0.3
			c0,0.1,0,0.2,0,0.2c0,9.4-7.7,17.1-17.1,17.1"/>
		<path id="XMLID_977_" class="st0" d="M19.7,41.9c4.4,0,8.3-1.8,11.2-4.6c2.9-2.9,4.6-6.8,4.6-11.2c0-0.1,0-0.2,0-0.2h0.3
			c0,0.1,0,0.2,0,0.2c0,8.9-7.2,16.1-16.1,16.1"/>
		<path id="XMLID_976_" class="st0" d="M18.9,41c4.1,0,7.8-1.7,10.5-4.4c2.7-2.7,4.4-6.4,4.4-10.5c0-0.1,0-0.2,0-0.2h0.3
			c0,0.1,0,0.2,0,0.2c0,8.4-6.8,15.2-15.2,15.2"/>
		<path id="XMLID_975_" class="st0" d="M18.1,40.1c3.9,0,7.4-1.6,9.9-4.1c2.5-2.5,4.1-6,4.1-9.9c0-0.1,0-0.2,0-0.2h0.3
			c0,0.1,0,0.2,0,0.2c0,7.9-6.4,14.4-14.4,14.4"/>
		<path id="XMLID_974_" class="st0" d="M18.9,39.2c3.1-0.3,5.8-1.7,7.9-3.8c2.4-2.4,3.9-5.7,3.9-9.3c0-0.1,0-0.2,0-0.2h0.3
			c0,0.1,0,0.2,0,0.2c0,6.9-5.2,12.6-11.9,13.4"/>
		<path id="XMLID_973_" class="st0" d="M18.7,38.4c2.7-0.4,5-1.7,6.8-3.5c2.3-2.3,3.6-5.4,3.6-8.8c0-0.1,0-0.2,0-0.2h0.3
			c0,0.1,0,0.2,0,0.2c0,6.3-4.6,11.6-10.6,12.6"/>
		<path id="XMLID_972_" class="st0" d="M18.4,37.6c2.3-0.5,4.4-1.6,6-3.2c2.1-2.1,3.4-5.1,3.4-8.3c0-0.1,0-0.2,0-0.2h0.3
			c0,0.1,0,0.2,0,0.2c0,5.8-4.1,10.7-9.6,11.8"/>
		<path id="XMLID_971_" class="st0" d="M18.4,36.7c1.9-0.5,3.6-1.5,4.9-2.8c2-2,3.2-4.8,3.2-7.8c0-0.1,0-0.2,0-0.2h0.3
			c0,0.1,0,0.2,0,0.2c0,5.2-3.5,9.6-8.3,11"/>
		<path id="XMLID_970_" class="st0" d="M18.7,35.8c1.4-0.5,2.6-1.3,3.6-2.4c1.9-1.9,3.1-4.5,3.1-7.4c0-0.1,0-0.2,0-0.2h0.3
			c0,0.1,0,0.2,0,0.2c0,4.6-2.9,8.5-6.9,10"/>
		<path id="XMLID_969_" class="st0" d="M18.1,35.2c1.2-0.5,2.3-1.2,3.3-2.2c1.8-1.8,2.9-4.2,2.9-6.9c0-0.1,0-0.2,0-0.2h0.3
			c0,0.1,0,0.2,0,0.2c0,4.2-2.6,7.9-6.3,9.4"/>
	</g>
	<g id="XMLID_946_">
		<g id="XMLID_88_">
			<path id="XMLID_98_" class="st1" d="M6.2,26.7c0.2,0,0.3,0.2,0.3,0.4l1.6,10.7h0l1.5-10.7c0-0.2,0.1-0.4,0.3-0.4h3.1
				c0.1,0,0.1,0.1,0.1,0.1c0,0.1-0.1,0.2-0.2,0.2l-0.6,0.7c-0.1,0.2-0.2,0.4-0.2,0.7v15c0,0.3,0,0.5,0.2,0.7l0.6,0.7
				c0.1,0.1,0.2,0.1,0.2,0.2c0,0,0,0.1-0.1,0.1H9.7c-0.1,0-0.1-0.1-0.1-0.1c0-0.1,0.1-0.2,0.2-0.3l0.5-0.7c0.1-0.2,0.2-0.4,0.2-0.7
				v-12h0L8.5,45.1c0,0.1-0.1,0.2-0.2,0.2H7.7c-0.1,0-0.1-0.1-0.1-0.2l-2-13.5h0v12c0,0.3,0,0.5,0.2,0.7l0.5,0.7
				c0.1,0.1,0.2,0.2,0.2,0.3c0,0,0,0.1-0.1,0.1h-3c-0.1,0-0.1-0.1-0.1-0.1c0-0.1,0.1-0.2,0.2-0.2l0.6-0.7C4,44,4.1,43.8,4.1,43.5
				v-15c0-0.3-0.1-0.5-0.2-0.7l-0.6-0.7c0-0.1-0.2-0.1-0.2-0.2c0,0,0-0.1,0.1-0.1H6.2z"/>
			<path id="XMLID_95_" class="st1" d="M18.4,41.1c0-0.1-0.1-0.2-0.2-0.2h-1.8c-0.1,0-0.1,0.1-0.1,0.2l-0.4,2.7c0,0.2,0,0.3,0.1,0.4
				l0.5,0.6c0.1,0.1,0.2,0.2,0.2,0.3c0,0.1,0,0.1-0.2,0.1h-2.8c-0.1,0-0.1-0.1-0.1-0.1c0-0.1,0.1-0.2,0.2-0.2l0.7-0.7
				c0.1-0.1,0.2-0.4,0.2-0.6L16.9,27c0-0.1,0.1-0.2,0.2-0.2H18c0.1,0,0.2,0.1,0.2,0.3l2.3,16.6c0,0.2,0.1,0.5,0.3,0.7l0.7,0.6
				c0.1,0.1,0.1,0.1,0.1,0.2c0,0.1-0.1,0.1-0.2,0.1H18c-0.1,0-0.2-0.1-0.2-0.1c0-0.1,0.1-0.1,0.2-0.2l0.7-0.7
				c0.1-0.1,0.1-0.3,0.1-0.5L18.4,41.1z M18.1,39.6c0.1,0,0.1-0.1,0.1-0.2l-0.9-6.1h0l-0.8,6.1c0,0.1,0,0.1,0.1,0.1H18.1z"/>
			<path id="XMLID_92_" class="st1" d="M23.2,28.5c0-0.3,0-0.5-0.2-0.7l-0.7-0.7c0-0.1-0.2-0.1-0.2-0.2c0-0.1,0-0.1,0.1-0.1h3.3
				c2.5,0,4,2.4,4,8.8c0,8.1-1.5,9.7-4,9.7h-3.3c-0.1,0-0.1-0.1-0.1-0.1c0-0.1,0.1-0.1,0.2-0.2l0.7-0.7c0.2-0.2,0.2-0.4,0.2-0.7
				V28.5z M25.1,44h0.4c1,0,1.9-0.9,1.9-8.5c0-6.6-0.9-7.6-1.9-7.6h-0.4V44z"/>
			<path id="XMLID_89_" class="st1" d="M34.5,41.1c0-0.1-0.1-0.2-0.2-0.2h-1.8c-0.1,0-0.1,0.1-0.1,0.2l-0.4,2.7c0,0.2,0,0.3,0.1,0.4
				l0.5,0.6c0.1,0.1,0.2,0.2,0.2,0.3c0,0.1,0,0.1-0.2,0.1h-2.8c-0.1,0-0.1-0.1-0.1-0.1c0-0.1,0.1-0.2,0.2-0.2l0.7-0.7
				c0.1-0.1,0.2-0.4,0.2-0.6L32.9,27c0-0.1,0.1-0.2,0.2-0.2h0.9c0.1,0,0.2,0.1,0.2,0.3l2.3,16.6c0,0.2,0.1,0.5,0.3,0.7l0.7,0.6
				c0.1,0.1,0.1,0.1,0.1,0.2c0,0.1,0,0.1-0.2,0.1H34c-0.1,0-0.2-0.1-0.2-0.1c0-0.1,0.1-0.1,0.2-0.2l0.7-0.7c0.1-0.1,0.1-0.3,0.1-0.5
				L34.5,41.1z M34.1,39.6c0.1,0,0.1-0.1,0.1-0.2l-0.9-6.1h0l-0.8,6.1c0,0.1,0,0.1,0.1,0.1H34.1z"/>
		</g>
	</g>
	<path id="XMLID_943_" class="st2" d="M3.2,25.8h20.6c0,0,0-8.3-8.4-9.6"/>
	<g id="XMLID_829_">
		<path id="XMLID_832_" class="st1" d="M2.4,25.8c0-6.7,2.7-12.8,7.1-17.1c4.4-4.4,10.4-7.1,17.1-7.1c0.1,0,0.2,0,0.3,0V1.2
			c-0.1,0-0.2,0-0.3,0C13,1.2,2,12.2,2,25.8"/>
	</g>
</g>
</svg>
