<?xml version="1.0" encoding="utf-8"?>
<!-- Generator: Adobe Illustrator 19.0.0, SVG Export Plug-In . SVG Version: 6.00 Build 0)  -->
<svg version="1.1" id="Layer_1" xmlns="http://www.w3.org/2000/svg" xmlns:xlink="http://www.w3.org/1999/xlink" x="0px" y="0px"
	 viewBox="0 0 177 181" style="enable-background:new 0 0 177 181;" xml:space="preserve">
<style type="text/css">
	.st0{fill:#A9B3B6;}
	.st1{fill:none;stroke:#DE1F26;stroke-width:1.1772;stroke-linecap:round;stroke-linejoin:round;stroke-miterlimit:10;}
	.st2{fill:#DE1F26;}
</style>
<g>
	<path class="st0" d="M12.8,92.7c0-9.8,4-18.6,10.4-25c6.4-6.4,15.2-10.4,25-10.4c9.8,0,18.6,4,25,10.4c6.4,6.4,10.4,15.2,10.4,25
		c0,0.3,0,0.6,0,0.9h1.2c0-0.3,0-0.6,0-0.9c0-20.2-16.4-36.6-36.5-36.6c-6.9,0-13.4,1.9-18.9,5.3c5.9-4,13.1-6.3,20.8-6.3
		c10.4,0,19.8,4.2,26.6,11c6.8,6.8,11,16.2,11,26.6c0,0.3,0,0.6,0,0.9h1.2c0-0.3,0-0.6,0-0.9c0-21.4-17.3-38.7-38.7-38.7
		c-7.9,0-15.2,2.4-21.3,6.4c6.5-4.7,14.6-7.5,23.3-7.5c11,0,21,4.5,28.2,11.7c7.2,7.2,11.7,17.2,11.7,28.2c0,0.3,0,0.6,0,0.9H93
		c0-0.3,0-0.6,0-0.9c0-22.7-18.4-41-41-41c-8.9,0-17.1,2.8-23.8,7.6c7.2-5.6,16.2-8.9,25.9-8.9c11.7,0,22.2,4.7,29.9,12.4
		c7.7,7.7,12.4,18.2,12.4,29.9c0,0.3,0,0.6,0,0.9h1.2c0-0.3,0-0.6,0-0.9c0-24-19.5-43.5-43.5-43.5c-10,0-19.2,3.4-26.5,9
		c7.8-6.5,17.8-10.4,28.8-10.4c12.4,0,23.6,5,31.7,13.1c8.1,8.1,13.1,19.3,13.1,31.7c0,0.3,0,0.6,0,0.9h1.2c0-0.3,0-0.6,0-0.9
		c0-25.4-20.6-46.1-46.1-46.1c-11,0-21.1,3.9-29.1,10.3C35.7,49.5,46.8,45,58.8,45c13.2,0,25.1,5.3,33.7,14
		c8.6,8.6,13.9,20.5,13.9,33.7c0,0.3,0,0.6,0,0.9h1.2c0-0.3,0-0.6,0-0.9c0-27-21.9-48.8-48.8-48.8c-12.3,0-23.5,4.5-32,12
		c9-8.5,21.2-13.7,34.6-13.7c14,0,26.6,5.7,35.7,14.8c9.1,9.2,14.8,21.8,14.8,35.7c0,0.3,0,0.6,0,0.9h1.2c0-0.3,0-0.6,0-0.9
		c0-28.6-23.2-51.7-51.7-51.7c-13.6,0-25.9,5.2-35.1,13.8C36,45,49.4,39,64.2,39c14.8,0,28.2,6,37.9,15.7
		c9.7,9.7,15.7,23.1,15.7,37.9c0,0.3,0,0.6,0,0.9h1.2c0-0.3,0-0.6,0-0.9c0-30.3-24.5-54.8-54.8-54.8c-14.9,0-28.4,6-38.3,15.6
		c0.3-0.4,0.7-0.7,1-1.1c10.3-10.3,24.5-16.7,40.2-16.7c15.7,0,29.9,6.4,40.2,16.7C117.7,62.7,124,76.9,124,92.7c0,0.3,0,0.6,0,0.9
		h1.2c0-0.3,0-0.6,0-0.9c0-32.1-26-58.1-58.1-58.1c-16.4,0-31.1,6.8-41.7,17.7c0.7-0.8,1.4-1.5,2.1-2.3c10.9-10.9,26-17.7,42.7-17.7
		C87,32.3,102,39,113,50c10.9,10.9,17.7,26,17.7,42.7c0,0.3,0,0.6,0,0.9h1.2c0-0.3,0-0.6,0-0.9c0-34-27.6-61.6-61.6-61.6
		c-17.9,0-34,7.6-45.3,19.8c1.1-1.2,2.2-2.4,3.3-3.6c11.6-11.6,27.6-18.8,45.3-18.8c17.7,0,33.7,7.2,45.3,18.8
		c11.6,11.6,18.8,27.6,18.8,45.3c0,0.3,0,0.6,0,0.9h1.2c0-0.3,0-0.6,0-0.9c0-36-29.2-65.3-65.2-65.3c-19.5,0-37.1,8.6-49,22.2
		c1.4-1.8,3-3.4,4.5-5c12.3-12.3,29.3-19.9,48.1-19.9c18.8,0,35.8,7.6,48.1,19.9c12.3,12.3,19.9,29.3,19.9,48.1c0,0.3,0,0.6,0,0.9
		h1.2c0-0.3,0-0.6,0-0.9c0-38.2-31-69.2-69.2-69.2c-21.3,0-40.4,9.6-53.1,24.8c1.8-2.3,3.8-4.6,5.9-6.6c13.1-13.1,31.1-21.1,51-21.1
		c19.9,0,37.9,8.1,51,21.1c13,13.1,21.1,31.1,21.1,51c0,0.3,0,0.6,0,0.9h1.2c0-0.3,0-0.6,0-0.9c0-40.5-32.8-73.3-73.3-73.3
		c-23.2,0-43.9,10.8-57.3,27.6c2.2-3,4.7-5.8,7.3-8.4c13.9-13.8,33-22.4,54.1-22.4c21.1,0,40.3,8.6,54.1,22.4
		c13.8,13.9,22.4,33,22.4,54.1c0,0.3,0,0.6,0,0.9h1.2c0-0.3,0-0.6,0-0.9C162.8,49.7,128,15,85.1,15c-25.2,0-47.6,12-61.8,30.6
		c2.6-3.7,5.5-7.1,8.7-10.3c14.7-14.7,35-23.8,57.4-23.8c22.4,0,42.7,9.1,57.4,23.8c14.7,14.7,23.8,35,23.8,57.4c0,0.3,0,0.6,0,0.9
		h1.2c0-0.3,0-0.6,0-0.9c0-45.5-36.9-82.4-82.4-82.4c-45.5,0-82.4,36.9-82.4,82.4c0,0.3,0,0.6,0,0.9h5.8
		C12.8,93.2,12.8,93,12.8,92.7z"/>
	<path class="st0" d="M89.4,175.6c22.4,0,42.7-9.1,57.4-23.8c14.7-14.7,23.8-35,23.8-57.4c0-0.3,0-0.6,0-0.9h1.2c0,0.3,0,0.6,0,0.9
		c0,45.5-36.9,82.4-82.4,82.4"/>
	<path class="st0" d="M85.1,170.9c21.1,0,40.3-8.6,54.1-22.4c13.8-13.9,22.4-33,22.4-54.1c0-0.3,0-0.6,0-0.9h1.2c0,0.3,0,0.6,0,0.9
		c0,42.9-34.8,77.7-77.7,77.7"/>
	<path class="st0" d="M81,166.6c19.9,0,37.9-8.1,51-21.1c13-13.1,21.1-31.1,21.1-51c0-0.3,0-0.6,0-0.9h1.2c0,0.3,0,0.6,0,0.9
		c0,40.5-32.8,73.3-73.3,73.3"/>
	<path class="st0" d="M77.2,162.4c18.8,0,35.8-7.6,48.1-19.9c12.3-12.3,19.9-29.3,19.9-48.1c0-0.3,0-0.6,0-0.9h1.2
		c0,0.3,0,0.6,0,0.9c0,38.2-31,69.2-69.2,69.2"/>
	<path class="st0" d="M73.6,158.5c17.7,0,33.7-7.2,45.3-18.8c11.6-11.6,18.8-27.6,18.8-45.3c0-0.3,0-0.6,0-0.9h1.2
		c0,0.3,0,0.6,0,0.9c0,36-29.2,65.2-65.2,65.2"/>
	<path class="st0" d="M70.3,154.8c16.7,0,31.8-6.8,42.7-17.7c10.9-10.9,17.7-26,17.7-42.7c0-0.3,0-0.6,0-0.9h1.2c0,0.3,0,0.6,0,0.9
		c0,34-27.6,61.6-61.6,61.6"/>
	<path class="st0" d="M67.1,151.3c15.7,0,29.9-6.4,40.2-16.7c10.3-10.3,16.7-24.5,16.7-40.2c0-0.3,0-0.6,0-0.9h1.2
		c0,0.3,0,0.6,0,0.9c0,32.1-26,58.1-58.1,58.1"/>
	<path class="st0" d="M64.2,148.1c14.8,0,28.2-6,37.9-15.7c9.7-9.7,15.7-23.1,15.7-37.9c0-0.3,0-0.6,0-0.9h1.2c0,0.3,0,0.6,0,0.9
		c0,30.3-24.5,54.8-54.8,54.8"/>
	<path class="st0" d="M61.4,145c14,0,26.6-5.7,35.7-14.8c9.1-9.2,14.8-21.8,14.8-35.7c0-0.3,0-0.6,0-0.9h1.2c0,0.3,0,0.6,0,0.9
		c0,28.6-23.2,51.7-51.7,51.7"/>
	<path class="st0" d="M64.2,141.8c11-1.2,20.9-6.2,28.3-13.6c8.6-8.6,13.9-20.5,13.9-33.7c0-0.3,0-0.6,0-0.9h1.2c0,0.3,0,0.6,0,0.9
		c0,24.9-18.7,45.5-42.8,48.4"/>
	<path class="st0" d="M63.5,138.8c9.5-1.5,18.1-6,24.6-12.6c8.1-8.1,13.1-19.3,13.1-31.7c0-0.3,0-0.6,0-0.9h1.2c0,0.3,0,0.6,0,0.9
		c0,22.8-16.6,41.7-38.3,45.4"/>
	<path class="st0" d="M62.3,135.9c8.4-1.6,15.9-5.8,21.7-11.6c7.7-7.7,12.4-18.2,12.4-29.9c0-0.3,0-0.6,0-0.9h1.2c0,0.3,0,0.6,0,0.9
		c0,21-14.9,38.5-34.7,42.6"/>
	<path class="st0" d="M62.6,132.9c6.8-1.9,12.8-5.4,17.6-10.3c7.2-7.2,11.7-17.2,11.7-28.2c0-0.3,0-0.6,0-0.9H93c0,0.3,0,0.6,0,0.9
		c0,18.8-12.6,34.6-29.9,39.5"/>
	<path class="st0" d="M63.6,129.5c4.9-1.9,9.4-4.8,13-8.5c6.8-6.8,11-16.2,11-26.6c0-0.3,0-0.6,0-0.9h1.2c0,0.3,0,0.6,0,0.9
		c0,16.5-10.3,30.6-24.8,36.2"/>
	<path class="st0" d="M61.5,127.2c4.4-1.8,8.4-4.5,11.7-7.8c6.4-6.4,10.4-15.2,10.4-25c0-0.3,0-0.6,0-0.9h1.2c0,0.3,0,0.6,0,0.9
		c0,15.3-9.4,28.4-22.7,33.8"/>
</g>
<path class="st1" d="M7.6,93.5h74.2c0,0,0.1-29.8-30.4-34.4"/>
<g>
	<path class="st2" d="M4.7,93.5c0-24.1,9.8-46,25.6-61.8C46.1,16,67.9,6.2,92,6.2c0.3,0,0.6,0,1,0V4.9c-0.3,0-0.6,0-1,0
		C43.1,4.9,3.4,44.6,3.4,93.5"/>
</g>
</svg>
